inDegrees=no
num_controls=7
num_derivatives=13
num_iterations=114
num_multipliers=7
num_parameters=0
num_slacks=7
num_states=26
objective=0.545143
objective_accelerations=0.042116
objective_balance=0.003902
objective_effort=0.041108
objective_height=0.448568
objective_ligament=0.009449
solver_duration=1275.751391
status=Solve_Succeeded
success=true
DataType=double
version=3
OpenSimVersion=4.5
endheader
time	/jointset/ground_pelvis/pelvis_tilt/value	/jointset/ground_pelvis/pelvis_tx/value	/jointset/ground_pelvis/pelvis_ty/value	/jointset/hip_r/hip_flexion_r/value	/jointset/hip_r/hip_adduction_r/value	/jointset/hip_r/hip_rotation_r/value	/jointset/back/lumbar_extension/value	/jointset/patellofemoral_r/patellar_flexion_r/value	/jointset/knee_r/knee_flexion_r/value	/jointset/knee_r/knee_adduction_r/value	/jointset/knee_r/knee_rotation_r/value	/jointset/ankle_r/ankle_angle_r/value	/jointset/subtalar_r/subtalar_angle_r/value	/jointset/ground_pelvis/pelvis_tilt/speed	/jointset/ground_pelvis/pelvis_tx/speed	/jointset/ground_pelvis/pelvis_ty/speed	/jointset/hip_r/hip_flexion_r/speed	/jointset/hip_r/hip_adduction_r/speed	/jointset/hip_r/hip_rotation_r/speed	/jointset/back/lumbar_extension/speed	/jointset/patellofemoral_r/patellar_flexion_r/speed	/jointset/knee_r/knee_flexion_r/speed	/jointset/knee_r/knee_adduction_r/speed	/jointset/knee_r/knee_rotation_r/speed	/jointset/ankle_r/ankle_angle_r/speed	/jointset/subtalar_r/subtalar_angle_r/speed	/forceset/tau_hip_flexion_r	/forceset/tau_hip_adduction_r	/forceset/tau_hip_rotation_r	/forceset/tau_knee_flexion_r	/forceset/tau_ankle_angle_r	/forceset/tau_subtalar_angle_r	/forceset/tau_lumbar_extension	lambda_cid13_p0	lambda_cid14_p0	lambda_cid14_p1	lambda_cid14_p2	lambda_cid14_p3	lambda_cid14_p4	lambda_cid14_p5	/jointset/ground_pelvis/pelvis_tilt/accel	/jointset/ground_pelvis/pelvis_tx/accel	/jointset/ground_pelvis/pelvis_ty/accel	/jointset/hip_r/hip_flexion_r/accel	/jointset/hip_r/hip_adduction_r/accel	/jointset/hip_r/hip_rotation_r/accel	/jointset/back/lumbar_extension/accel	/jointset/patellofemoral_r/patellar_flexion_r/accel	/jointset/knee_r/knee_flexion_r/accel	/jointset/knee_r/knee_adduction_r/accel	/jointset/knee_r/knee_rotation_r/accel	/jointset/ankle_r/ankle_angle_r/accel	/jointset/subtalar_r/subtalar_angle_r/accel	gamma_cid13_p0	gamma_cid14_p0	gamma_cid14_p1	gamma_cid14_p2	gamma_cid14_p3	gamma_cid14_p4	gamma_cid14_p5
0.5	-0.2260499334868701	-0.00676811287201767	0.8386068784788711	0.9155376198029109	-0.2279175974755437	-0.1318112200210251	-0.339642239931283	0.6970469749556075	0.6970469749556559	0.03608473913810049	0.1744633647588697	0.1756546095672179	0.03494885457118904	-0.6071906699282829	-0.2138405396759034	-0.4107582485124749	1.981316564556076	-0.0003400479480198873	0.2668528146581305	-0.5859236815623798	1.671186962098843	1.671186962098655	-0.2796521756372488	-0.0003541486228038928	0.3775691827761964	0.09554784987721945	-0.1576345564935487	-0.0239464652721373	0.009426513552019599	-0.3117466873680804	0.1197666705683949	-0.008448548734869788	0.1908621269134092	-31.49699647419525	-3.785814700373261	-0.1445336521195345	-4.300166805616829	-2.583690768731726	-668.1449048139468	60.61351312859142	0.3153464629321502	0.544922401646495	-0.3349156441303249	-1.349677937080603	-0.02882225139839584	-0.4992487891310952	1.738850456401629	-1.245680308740513	-1.245680308740503	0.4699693331157906	-0.0007574079901498994	-0.344671962438844	-0.08176446451127359	-1.065833365035179e-07	-1.282711987688427e-07	5.427466466910075e-07	-8.398964402743841e-07	2.094661138977252e-08	-2.069588522206276e-07	3.723664385509424e-07
0.51	-0.2321049050622754	-0.008879113842518526	0.8344834664475396	0.9352802418422484	-0.2279231941420502	-0.1291671904740617	-0.3454144510606167	0.713694176808934	0.7136941768089516	0.03331368737299	0.1744601515872928	0.1794121807071759	0.03589906642659935	-0.6037182495299254	-0.2083467881912773	-0.413834676390514	1.966955361387642	-0.0007890019445479218	0.2619895256454648	-0.568475542437706	1.658030565617071	1.658030565616841	-0.2744975550203935	-0.0003098611816479839	0.3738801682148274	0.09446255894483378	-0.1652879956745369	-0.02250351181888432	0.01007663960155699	-0.3140060587487957	0.1171762692084633	-0.007982718846720848	0.1972648102151876	-30.53582009115344	-4.825462801730428	-0.2224738520883785	-4.175555379979587	-2.092064963568864	-672.2547202529742	60.42870521022247	0.375988193904764	0.553532158464526	-0.2806216032975432	-1.517228431034998	-0.05443241142393199	-0.4745508195721689	1.754245920176231	-1.384025907832903	-1.384025907839339	0.5473630391970494	0.003679389370140054	-0.3907612149495901	-0.1266939109106446	-8.285370473638807e-08	-4.624026380745365e-08	7.642989149885396e-07	-2.602133421272249e-07	-5.904247196588032e-08	-1.27046901983368e-07	3.608168525690328e-07
0.52	-0.2381225927605624	-0.01093479117085414	0.8303319670886966	0.9548716744650481	-0.2279335804360494	-0.1265707301896714	-0.3510108907427665	0.730203133379468	0.730203133379436	0.03059601273669552	0.1744567128039414	0.1831309126991282	0.03683746887202423	-0.5997338945069171	-0.2027758112428543	-0.4163757140147857	1.95107868124679	-0.001297973446840832	0.2573389621432932	-0.5507693921260126	1.643537905537804	1.643537905537531	-0.268976749874473	-0.0003992709724214149	0.3698013531749126	0.09318596788011053	-0.1729414348555173	-0.02106055836561449	0.01072676565082861	-0.3162654301295006	0.1145858678485426	-0.007516888958537284	0.2036674935169688	-29.56835840139797	-5.86893623386324	-0.2984090547164425	-4.054319181224822	-1.610660601961991	-676.4314168782776	60.29695793960396	0.4177333878621168	0.5603674944059374	-0.2278375933768317	-1.652773331564336	-0.04082575255141141	-0.4567036870322982	1.790452693805414	-1.512933028239528	-1.512933028239586	0.5432062389288836	-0.02749685437602749	-0.4226320581479335	-0.1200244909787899	-4.970088883563646e-08	7.804940824560661e-08	1.121663548954281e-06	6.047407559344722e-07	-1.854188155764527e-07	-5.430933849062001e-09	3.749514407198452e-07
0.53	-0.2440981059855218	-0.01293437210346978	0.826157751139967	0.9742971520349342	-0.2279486821637308	-0.1240226317725577	-0.3564288803916613	0.7465606900447397	0.7465606900447153	0.0279323132373861	0.1744533863981537	0.1868072626543793	0.03776310666897612	-0.5952893381430634	-0.1971255221921148	-0.4183736206792479	1.933764715529154	-0.001733608116946998	0.2523188580764651	-0.5327941001676798	1.627756369733513	1.627756369733457	-0.2637028846329208	-0.0002886243074088395	0.3654156330743455	0.09191067621646	-0.1802487362407463	-0.01990414348628707	0.01131522315345672	-0.3190978871564095	0.1128752391076116	-0.007123106828466428	0.2098102995317937	-28.5951693769636	-6.636041017165448	-0.3596954798796607	-3.93261916935477	-1.360294558429546	-680.696171425387	60.23918919308392	0.4697385389027674	0.5695372140707919	-0.1716772555918699	-1.808512203187711	-0.04633744527597879	-0.5189304987627918	1.806233069339439	-1.643316066251677	-1.643316066219109	0.5287642659260084	0.02714596575352642	-0.4545313748439769	-0.1355880306486381	-2.73299192812436e-08	1.586026720095513e-07	1.346738137490944e-06	1.161254112462982e-06	-2.670850670829632e-07	7.20395077677738e-08	3.972786335237393e-07
0.54	-0.2500267892911787	-0.01487701462484523	0.8219663741140708	0.9935419291453875	-0.2279684212623151	-0.1215235877425698	-0.3616660839964724	0.7627539209100135	0.7627539209100107	0.02532320991033032	0.174450526566786	0.1904381575308589	0.03867513024397357	-0.5903679106490107	-0.1913881289948169	-0.4198079294481003	1.914938589358536	-0.002225447628484309	0.24752808471945	-0.5146121833096752	1.61067274554011	1.610672745540272	-0.25805751542506	-0.0003059560898512869	0.3607103374204638	0.09046312348918993	-0.1875560376259796	-0.01874772860696583	0.01190368065619141	-0.3219303441833138	0.1111646103666829	-0.00672932469839678	0.2159531055466138	-27.61713631052933	-7.409636991394503	-0.4220198456384673	-3.810865129758837	-1.101069704523431	-685.0628516772119	60.18132241709687	0.5131076139017485	0.5777883237176775	-0.1151180142548966	-1.955205422160736	-0.0520667208376535	-0.4108375450696828	1.831777673739674	-1.773350706061897	-1.773350706061961	0.6175070321906452	-0.05309254386704082	-0.486547168810793	-0.1544767037027047	-1.688780100367335e-08	1.907667180919207e-07	1.425449271510327e-06	1.376513882614344e-06	-2.99284833708383e-07	1.006680902588973e-07	4.286699846672131e-07
